<svg id="icons" xmlns="http://www.w3.org/2000/svg" viewBox="0 0 64 43"><defs><style>.cls-1,.cls-2{fill:none;stroke:#ffd928;stroke-width:2px;}.cls-1{stroke-linejoin:round;}.cls-2{stroke-miterlimit:10;}</style></defs><title>1</title><g id="_25_airplane_flight" data-name="25_airplane_flight"><path class="cls-1" d="M334,8103H322l-3-13h3l5,5h43c4,0,8,3,8,3v2s-4,3-8,3H357" transform="translate(-315 -8067)"/><polygon class="cls-1" points="43 28 27 28 17 18 25 18 43 28"/><polygon class="cls-1" points="43 32 27 32 17 42 25 42 43 32"/><line class="cls-1" x1="52" y1="32" x2="50" y2="32"/><line class="cls-1" x1="48" y1="32" x2="46" y2="32"/><line class="cls-1" x1="22" y1="32" x2="20" y2="32"/><line class="cls-1" x1="18" y1="32" x2="16" y2="32"/><line class="cls-1" x1="14" y1="32" x2="12" y2="32"/><line class="cls-1" x1="14" y1="42" x2="6" y2="42"/><line class="cls-1" x1="4" y1="42" y2="42"/><line class="cls-1" x1="14" y1="18" x2="10" y2="18"/><line class="cls-1" x1="8" y1="18" y2="18"/><path class="cls-2" d="M371,8090v-1a9,9,0,0,0-9-9h-1a5,5,0,0,0-7-7,12.41,12.41,0,0,0-10-5,12,12,0,0,0-12,12" transform="translate(-315 -8067)"/></g></svg>