<svg id="icons" xmlns="http://www.w3.org/2000/svg" viewBox="0 0 64.3 59.3"><defs><style>.cls-1{fill:none;stroke:#ffd928;stroke-linejoin:round;stroke-width:2.3px;}</style></defs><title>2</title><g id="_03_success_tactics" data-name="03_success_tactics"><line class="cls-1" x1="32.15" y1="41.15" x2="32.15" y2="59.15"/><polyline class="cls-1" points="42.15 41.15 48.15 58.15 48.15 59.15"/><polyline class="cls-1" points="22.15 41.15 16.15 58.15 16.15 59.15"/><polyline class="cls-1" points="59.15 12.15 59.15 41.15 5.15 41.15 5.15 12.15"/><polygon class="cls-1" points="1.15 9.15 1.15 5.15 25.15 5.15 27.15 1.15 37.15 1.15 39.15 5.15 63.15 5.15 63.15 9.15 1.15 9.15"/><line class="cls-1" x1="29.15" y1="5.15" x2="35.15" y2="5.15"/><circle class="cls-1" cx="26.15" cy="18.15" r="1"/><circle class="cls-1" cx="36.15" cy="32.15" r="1"/><path class="cls-1" d="M239,1251v-2a5,5,0,0,0-10,0v6a5,5,0,0,1-5,5h-6" transform="translate(-207.85 -1230.85)"/><path class="cls-1" d="M262,1252h-8a5,5,0,0,0-5,5v6a5,5,0,0,1-10,0v-2" transform="translate(-207.85 -1230.85)"/><polyline class="cls-1" points="50.15 25.15 54.15 21.15 50.15 17.15"/><line class="cls-1" x1="31.15" y1="22.15" x2="31.15" y2="24.15"/><line class="cls-1" x1="31.15" y1="26.15" x2="31.15" y2="28.15"/><line class="cls-1" x1="8.15" y1="13.15" x2="10.15" y2="13.15"/><line class="cls-1" x1="54.15" y1="13.15" x2="56.15" y2="13.15"/><line class="cls-1" x1="54.15" y1="37.15" x2="56.15" y2="37.15"/><line class="cls-1" x1="8.15" y1="37.15" x2="10.15" y2="37.15"/></g></svg>