<svg id="icons" xmlns="http://www.w3.org/2000/svg" viewBox="0 0 64 64"><defs><style>.cls-1{fill:none;stroke:#ffd928;stroke-miterlimit:10;stroke-width:2px;}</style></defs><title>3</title><g id="_07_money_savings" data-name="07_money_savings"><circle class="cls-1" cx="32" cy="20" r="19"/><path class="cls-1" d="M244,2506a4,4,0,0,0-8,0c0,2.21,2,3,4,4s4,1.79,4,4a4,4,0,0,1-8,0" transform="translate(-208 -2490)"/><line class="cls-1" x1="32" y1="12" x2="32" y2="9"/><line class="cls-1" x1="32" y1="28" x2="32" y2="31"/><path class="cls-1" d="M222,2535l-7-7v-1a3,3,0,0,1,3-3h1l10,10a7.81,7.81,0,0,1,2,5v8H220v-2a6.19,6.19,0,0,0-2-4l-7-7a6.19,6.19,0,0,1-2-4v-16a3,3,0,0,1,6,0v8" transform="translate(-208 -2490)"/><path class="cls-1" d="M258,2535l7-7v-1a3,3,0,0,0-3-3h-1l-10,10a7.81,7.81,0,0,0-2,5v8h11v-2a6.19,6.19,0,0,1,2-4l7-7a6.19,6.19,0,0,0,2-4v-16a3,3,0,0,0-6,0v8" transform="translate(-208 -2490)"/><path class="cls-1" d="M247,2554v-6a1,1,0,0,1,1-1h13a1,1,0,0,1,1,1v6" transform="translate(-208 -2490)"/><path class="cls-1" d="M218,2554v-6a1,1,0,0,1,1-1h13a1,1,0,0,1,1,1v6" transform="translate(-208 -2490)"/><line class="cls-1" x1="22" y1="20" x2="24" y2="20"/><line class="cls-1" x1="40" y1="20" x2="42" y2="20"/><circle class="cls-1" cx="32" cy="20" r="15"/></g></svg>