<svg id="icons" xmlns="http://www.w3.org/2000/svg" viewBox="0 0 62.5 64.5"><defs><style>.cls-1,.cls-2,.cls-3{fill:none;stroke:#ffd928;stroke-width:2.5px;}.cls-1,.cls-3{stroke-linejoin:round;}.cls-2{stroke-miterlimit:10;}.cls-3{stroke-linecap:square;}</style></defs><title>4</title><g id="_19_testing_checklist" data-name="19_testing_checklist"><polygon class="cls-1" points="45.25 63.25 45.25 9.25 37.25 1.25 1.25 1.25 1.25 63.25 45.25 63.25"/><polyline class="cls-2" points="14.25 18.25 10.25 22.25 7.25 19.25"/><line class="cls-2" x1="18.25" y1="18.25" x2="28.25" y2="18.25"/><line class="cls-2" x1="18.25" y1="22.25" x2="34.25" y2="22.25"/><polyline class="cls-2" points="14.25 28.25 10.25 32.25 7.25 29.25"/><line class="cls-2" x1="18.25" y1="28.25" x2="40.25" y2="28.25"/><line class="cls-2" x1="18.25" y1="32.25" x2="26.25" y2="32.25"/><line class="cls-2" x1="18.25" y1="38.25" x2="40.25" y2="38.25"/><line class="cls-2" x1="18.25" y1="42.25" x2="30.25" y2="42.25"/><line class="cls-2" x1="18.25" y1="48.25" x2="32.25" y2="48.25"/><line class="cls-2" x1="18.25" y1="52.25" x2="40.25" y2="52.25"/><rect class="cls-2" x="52.25" y="1.25" width="4" height="5"/><polygon class="cls-3" points="57.25 6.25 57.25 57.25 54.25 63.25 51.25 57.25 51.25 6.25 57.25 6.25"/><line class="cls-2" x1="57.25" y1="36.25" x2="51.25" y2="36.25"/><polyline class="cls-2" points="61.25 26.25 61.25 10.25 51.25 10.25"/><line class="cls-2" x1="51.25" y1="40.25" x2="57.25" y2="40.25"/><line class="cls-2" x1="51.25" y1="44.25" x2="57.25" y2="44.25"/><line class="cls-2" x1="51.25" y1="48.25" x2="57.25" y2="48.25"/><line class="cls-2" x1="51.25" y1="52.25" x2="57.25" y2="52.25"/><line class="cls-2" x1="28.25" y1="32.25" x2="40.25" y2="32.25"/><line class="cls-2" x1="30.25" y1="18.25" x2="40.25" y2="18.25"/><line class="cls-2" x1="34.25" y1="48.25" x2="40.25" y2="48.25"/><polyline class="cls-1" points="45.25 9.25 37.25 9.25 37.25 1.25"/><line class="cls-2" x1="6.25" y1="5.25" x2="8.25" y2="5.25"/><line class="cls-2" x1="10.25" y1="5.25" x2="12.25" y2="5.25"/><line class="cls-2" x1="14.25" y1="5.25" x2="16.25" y2="5.25"/><line class="cls-2" x1="6.25" y1="9.25" x2="32.25" y2="9.25"/><line class="cls-2" x1="13.25" y1="37.25" x2="7.25" y2="43.25"/><line class="cls-2" x1="7.25" y1="37.25" x2="13.25" y2="43.25"/><line class="cls-2" x1="13.25" y1="47.25" x2="7.25" y2="53.25"/><line class="cls-2" x1="7.25" y1="47.25" x2="13.25" y2="53.25"/></g></svg>