<svg id="icons" xmlns="http://www.w3.org/2000/svg" viewBox="0 0 58 64"><defs><style>.cls-1,.cls-2{fill:none;stroke:#ffd928;stroke-width:2px;}.cls-1{stroke-miterlimit:10;}.cls-2{stroke-linejoin:round;}</style></defs><title>5</title><g id="_05_head_hunting" data-name="05_head_hunting"><polyline class="cls-1" points="37 55 5 55 5 1 45 1 45 25"/><line class="cls-1" x1="45" y1="30" x2="45" y2="37"/><line class="cls-1" x1="49" y1="32" x2="49" y2="37"/><line class="cls-1" x1="53" y1="34" x2="53" y2="37"/><polyline class="cls-1" points="37 36 37 43 39 47 42 51 42 55"/><line class="cls-1" x1="45" y1="59" x2="43" y2="59"/><line class="cls-1" x1="36" y1="29" x2="41" y2="34"/><path class="cls-2" d="M584,2126v-2l3-10v-9a2,2,0,0,0-4,0v-2a2,2,0,0,0-4,0h0a2,2,0,0,0-4,0v-2a2,2,0,0,0-4,0v10l-8-8" transform="translate(-530 -2071)"/><circle class="cls-1" cx="25" cy="21" r="14"/><line class="cls-2" x1="10" y1="41" x2="18" y2="41"/><line class="cls-2" x1="10" y1="45" x2="24" y2="45"/><line class="cls-2" x1="10" y1="49" x2="34" y2="49"/><line class="cls-2" x1="20" y1="41" x2="34" y2="41"/><line class="cls-2" x1="26" y1="45" x2="34" y2="45"/><path class="cls-2" d="M570,2135v-8a1,1,0,0,1,1-1h14a1,1,0,0,1,1,1v8" transform="translate(-530 -2071)"/><polyline class="cls-1" points="35 59 1 59 1 4"/><path class="cls-1" d="M546,2103c0-6,6-8,6-8" transform="translate(-530 -2071)"/><path class="cls-1" d="M564,2103c0-6-6-8-6-8" transform="translate(-530 -2071)"/><path class="cls-1" d="M560,2089.5c0,3.5-2,6.5-5,6.5s-5-3-5-6.5,1-5.5,5-5.5S560,2086,560,2089.5Z" transform="translate(-530 -2071)"/></g></svg>