<svg id="icons" xmlns="http://www.w3.org/2000/svg" viewBox="0 0 64.5 64.5"><defs><style>.cls-1{fill:none;stroke:#ffd928;stroke-linejoin:round;stroke-width:2.5px;}</style></defs><title>6</title><g id="_33_chemicals_reaction" data-name="33_chemicals_reaction"><line class="cls-1" x1="16.25" y1="15.25" x2="24.25" y2="15.25"/><path class="cls-1" d="M350.49,10948a19,19,0,0,0-11.49-8v-10a3,3,0,0,0,0-6h-8" transform="translate(-314.75 -10914.75)"/><path class="cls-1" d="M331,10924a3,3,0,0,0,0,6v10c-9,2-15,10.6-15,19a19,19,0,0,0,19,19" transform="translate(-314.75 -10914.75)"/><polyline class="cls-1" points="30.25 58.25 30.25 59.25 56.25 59.25 56.25 58.25 45.25 44.25"/><path class="cls-1" d="M354,10932h8v22l16,21a2.94,2.94,0,0,1-3,3H342c-4,0-4-3-4-3l16-21v-22Z" transform="translate(-314.75 -10914.75)"/><line class="cls-1" x1="44.25" y1="21.25" x2="47.25" y2="21.25"/><line class="cls-1" x1="44.25" y1="25.25" x2="47.25" y2="25.25"/><line class="cls-1" x1="44.25" y1="29.25" x2="47.25" y2="29.25"/><line class="cls-1" x1="44.25" y1="33.25" x2="47.25" y2="33.25"/><line class="cls-1" x1="44.25" y1="37.25" x2="47.25" y2="37.25"/><path class="cls-1" d="M321,10959a14,14,0,0,1,14-14" transform="translate(-314.75 -10914.75)"/><line class="cls-1" x1="45.25" y1="14.25" x2="45.25" y2="0.25"/><path class="cls-1" d="M327,10920h28a1,1,0,0,1,1,1v8" transform="translate(-314.75 -10914.75)"/><line class="cls-1" x1="15.25" y1="1.25" x2="17.25" y2="1.25"/><line class="cls-1" x1="19.25" y1="1.25" x2="21.25" y2="1.25"/><line class="cls-1" x1="23.25" y1="1.25" x2="25.25" y2="1.25"/></g></svg>