<svg id="icons" xmlns="http://www.w3.org/2000/svg" viewBox="0 0 60 64"><defs><style>.cls-1,.cls-2{fill:none;stroke:#cbcdce;stroke-width:2px;}.cls-1{stroke-miterlimit:10;}.cls-2{stroke-linejoin:round;}</style></defs><title>1</title><g id="_19_website_development" data-name="19_website_development"><polyline class="cls-1" points="10 55 1 55 1 1 59 1 59 55 50 55"/><line class="cls-1" x1="1" y1="9" x2="59" y2="9"/><line class="cls-1" x1="4" y1="5" x2="6" y2="5"/><line class="cls-1" x1="8" y1="5" x2="10" y2="5"/><line class="cls-1" x1="12" y1="5" x2="14" y2="5"/><line class="cls-1" x1="17" y1="1" x2="17" y2="9"/><line class="cls-1" x1="20" y1="5" x2="56" y2="5"/><polyline class="cls-1" points="10 51 5 51 5 13 55 13 55 51 50 51"/><line class="cls-1" x1="8" y1="17" x2="18" y2="17"/><line class="cls-1" x1="8" y1="21" x2="22" y2="21"/><line class="cls-1" x1="8" y1="25" x2="16" y2="25"/><line class="cls-1" x1="24" y1="21" x2="30" y2="21"/><line class="cls-1" x1="32" y1="21" x2="42" y2="21"/><line class="cls-1" x1="18" y1="25" x2="24" y2="25"/><line class="cls-1" x1="8" y1="29" x2="14" y2="29"/><line class="cls-1" x1="20" y1="17" x2="28" y2="17"/><path class="cls-2" d="M363.15,6210.09l-5.47.15,1.84-5.16a18,18,0,0,0-4.09-3l-4.35,3.35-1.55-5.25a16.21,16.21,0,0,0-5.07,0l-1.55,5.25-4.35-3.35a18,18,0,0,0-4.09,3l1.84,5.16-5.47-.15a17.87,17.87,0,0,0-1.57,4.82l4.52,3.09-4.52,3.09a17.87,17.87,0,0,0,1.57,4.82l5.47-.15-1.84,5.16a18,18,0,0,0,4.09,3l4.35-3.35,1.55,5.25a16.21,16.21,0,0,0,5.07,0l1.55-5.25,4.35,3.35a18,18,0,0,0,4.09-3l-1.84-5.16,5.47,0.15a17.87,17.87,0,0,0,1.57-4.82L360.2,6218l4.52-3.09A17.87,17.87,0,0,0,363.15,6210.09Z" transform="translate(-317 -6173)"/><circle class="cls-1" cx="30" cy="45" r="9"/><circle class="cls-1" cx="30" cy="45" r="5"/></g></svg>