<svg id="icons" xmlns="http://www.w3.org/2000/svg" viewBox="0 0 64 64"><defs><style>.cls-1,.cls-2{fill:none;stroke:#cbcdce;stroke-width:2px;}.cls-1{stroke-miterlimit:10;}.cls-2{stroke-linejoin:round;}</style></defs><title>2</title><g id="_19_usability_testing" data-name="19_usability_testing"><circle class="cls-1" cx="50" cy="32" r="13"/><path class="cls-1" d="M581,6535v15a4,4,0,0,1-8,0v-11" transform="translate(-527 -6491)"/><line class="cls-1" x1="50" y1="56" x2="50" y2="58"/><line class="cls-1" x1="50" y1="52" x2="50" y2="54"/><line class="cls-1" x1="50" y1="48" x2="50" y2="50"/><polyline class="cls-2" points="56 28 48 36 44 32"/><polyline class="cls-1" points="43 57 1 57 1 1 63 1 63 20"/><polyline class="cls-1" points="63 44 63 57 57 57"/><line class="cls-1" x1="1" y1="9" x2="63" y2="9"/><line class="cls-1" x1="4" y1="5" x2="6" y2="5"/><line class="cls-1" x1="8" y1="5" x2="10" y2="5"/><line class="cls-1" x1="12" y1="5" x2="14" y2="5"/><line class="cls-1" x1="17" y1="1" x2="17" y2="9"/><line class="cls-1" x1="20" y1="5" x2="60" y2="5"/><polyline class="cls-1" points="43 53 5 53 5 13 59 13 59 18"/><rect class="cls-1" x="11" y="19" width="12" height="12"/><polyline class="cls-1" points="34 31 27 31 27 19 40 19"/><line class="cls-1" x1="10" y1="35" x2="24" y2="35"/><line class="cls-1" x1="10" y1="39" x2="24" y2="39"/><line class="cls-1" x1="10" y1="43" x2="24" y2="43"/><line class="cls-1" x1="10" y1="47" x2="24" y2="47"/><line class="cls-1" x1="26" y1="35" x2="34" y2="35"/><line class="cls-1" x1="26" y1="39" x2="34" y2="39"/><line class="cls-1" x1="26" y1="43" x2="37" y2="43"/><line class="cls-1" x1="26" y1="47" x2="40" y2="47"/></g></svg>