<svg id="icons" xmlns="http://www.w3.org/2000/svg" viewBox="0 0 64 64"><defs><style>.cls-1{fill:none;stroke:#cbcdce;stroke-miterlimit:10;stroke-width:2px;}</style></defs><title>3</title><g id="_17_wireframe_sketching" data-name="17_wireframe_sketching"><rect class="cls-1" x="1" y="1" width="18" height="28"/><rect class="cls-1" x="23" y="1" width="18" height="18"/><rect class="cls-1" x="45" y="1" width="18" height="32"/><line class="cls-1" x1="22" y1="23" x2="42" y2="23"/><line class="cls-1" y1="33" x2="20" y2="33"/><line class="cls-1" y1="37" x2="20" y2="37"/><line class="cls-1" y1="63" x2="20" y2="63"/><line class="cls-1" x1="19" y1="23" x2="1" y2="23"/><rect class="cls-1" x="23" y="31" width="18" height="32"/><rect class="cls-1" x="1" y="41" width="18" height="18"/><line class="cls-1" x1="22" y1="27" x2="42" y2="27"/><line class="cls-1" x1="44" y1="59" x2="64" y2="59"/><line class="cls-1" x1="44" y1="63" x2="64" y2="63"/><line class="cls-1" x1="27" y1="35" x2="29" y2="35"/><line class="cls-1" x1="31" y1="35" x2="33" y2="35"/><line class="cls-1" x1="35" y1="35" x2="37" y2="35"/><line class="cls-1" x1="49" y1="5" x2="51" y2="5"/><line class="cls-1" x1="53" y1="5" x2="55" y2="5"/><line class="cls-1" x1="57" y1="5" x2="59" y2="5"/><line class="cls-1" x1="5" y1="5" x2="7" y2="5"/><line class="cls-1" x1="9" y1="5" x2="11" y2="5"/><line class="cls-1" x1="13" y1="5" x2="15" y2="5"/><line class="cls-1" x1="45" y1="27" x2="63" y2="27"/><line class="cls-1" x1="41" y1="57" x2="23" y2="57"/><line class="cls-1" x1="23" y1="1" x2="41" y2="19"/><line class="cls-1" x1="41" y1="1" x2="23" y2="19"/><line class="cls-1" x1="1" y1="41" x2="19" y2="59"/><line class="cls-1" x1="19" y1="41" x2="1" y2="59"/><rect class="cls-1" x="45" y="37" width="18" height="18"/><line class="cls-1" x1="45" y1="37" x2="63" y2="55"/><line class="cls-1" x1="63" y1="37" x2="45" y2="55"/></g></svg>