<svg id="icons" xmlns="http://www.w3.org/2000/svg" viewBox="0 0 64 64"><defs><style>.cls-1,.cls-2{fill:none;stroke:#cbcdce;stroke-width:2px;}.cls-1{stroke-miterlimit:10;}.cls-2{stroke-linejoin:round;}</style></defs><title>4</title><g id="_17_perfection_mode" data-name="17_perfection_mode"><polyline class="cls-1" points="30 7 30 1 34 1 34 7"/><polyline class="cls-2" points="24 21 16 41 16 51 32 14 48 51 48 41 40 21"/><line class="cls-1" x1="19" y1="51" x2="21" y2="51"/><line class="cls-1" x1="23" y1="51" x2="25" y2="51"/><line class="cls-1" x1="27" y1="51" x2="29" y2="51"/><line class="cls-1" x1="31" y1="51" x2="33" y2="51"/><line class="cls-1" x1="35" y1="51" x2="37" y2="51"/><line class="cls-1" x1="39" y1="51" x2="41" y2="51"/><line class="cls-1" x1="43" y1="51" x2="45" y2="51"/><line class="cls-1" x1="24" y1="33" x2="40" y2="33"/><path class="cls-1" d="M562,5563l2-2a7.22,7.22,0,0,0,2-5,7,7,0,0,0-14,0,7.22,7.22,0,0,0,2,5l2,2" transform="translate(-527 -5542)"/><path class="cls-1" d="M575,5582.72c9,2.1,15,5.92,15,10.28,0,6.63-13.88,12-31,12s-31-5.37-31-12c0-4.36,6-8.17,15-10.28" transform="translate(-527 -5542)"/><line class="cls-1" x1="32" y1="46" x2="32" y2="48"/><line class="cls-1" x1="32" y1="54" x2="32" y2="56"/><circle class="cls-1" cx="32" cy="33" r="2"/><line class="cls-1" y1="14" x2="19" y2="14"/><polyline class="cls-1" points="15 18 19 14 15 10"/><line class="cls-1" x1="64" y1="14" x2="45" y2="14"/><polyline class="cls-1" points="49 18 45 14 49 10"/></g></svg>