<svg id="icons" xmlns="http://www.w3.org/2000/svg" viewBox="0 0 64 64"><defs><style>.cls-1,.cls-2{fill:none;stroke:#cbcdce;stroke-width:2px;}.cls-1{stroke-miterlimit:10;}.cls-2{stroke-linejoin:round;}</style></defs><title>5</title><g id="_05_training_seminar" data-name="05_training_seminar"><polyline class="cls-1" points="22 9 59 9 59 29 22 29"/><circle class="cls-2" cx="12" cy="6" r="5"/><path class="cls-1" d="M215,1781v9h-6v-15a7,7,0,0,1,7-7h27v6H227v16h44v-32H228" transform="translate(-208 -1753)"/><line class="cls-2" x1="22" y1="33" x2="60" y2="33"/><path class="cls-1" d="M264,1807l7,4v2c0,1.66-1,3-2,3H211c-1,0-2-1.34-2-3v-2l7-4" transform="translate(-208 -1753)"/><polyline class="cls-1" points="35 54 43 58 43 58 50 54"/><polyline class="cls-1" points="14 54 21 58 21 58 29 54"/><path class="cls-1" d="M224,1801.5c0,3.5-2,6.5-5,6.5s-5-3-5-6.5,1-5.5,5-5.5S224,1798,224,1801.5Z" transform="translate(-208 -1753)"/><path class="cls-1" d="M245,1801.5c0,3.5-2,6.5-5,6.5s-5-3-5-6.5,1-5.5,5-5.5S245,1798,245,1801.5Z" transform="translate(-208 -1753)"/><path class="cls-1" d="M266,1801.5c0,3.5-2,6.5-5,6.5s-5-3-5-6.5,1-5.5,5-5.5S266,1798,266,1801.5Z" transform="translate(-208 -1753)"/><line class="cls-1" x1="21" y1="58" x2="21" y2="61"/><line class="cls-1" x1="43" y1="58" x2="43" y2="61"/><line class="cls-1" x1="12" y1="18" x2="12" y2="20"/><line class="cls-1" x1="12" y1="22" x2="12" y2="24"/></g></svg>