<svg id="icons" xmlns="http://www.w3.org/2000/svg" viewBox="0 0 64 64"><defs><style>.cls-1,.cls-2{fill:none;stroke:#cbcdce;stroke-width:2px;}.cls-1{stroke-miterlimit:10;}.cls-2{stroke-linejoin:round;}</style></defs><title>6</title><g id="_05_workforce_organization" data-name="05_workforce_organization"><path class="cls-1" d="M429,2107l-7,4v2c0,1.66,1,3,2,3h3" transform="translate(-421 -2071)"/><polyline class="cls-1" points="29 36 21 40 21 40 14 36"/><polyline class="cls-1" points="50 36 43 40 43 40 35 36"/><path class="cls-1" d="M479,2116h3c1,0,2-1.34,2-3v-2l-7-4" transform="translate(-421 -2071)"/><path class="cls-1" d="M437,2101.5c0,3.5-2,6.5-5,6.5s-5-3-5-6.5,1-5.5,5-5.5S437,2098,437,2101.5Z" transform="translate(-421 -2071)"/><path class="cls-1" d="M458,2101.5c0,3.5-2,6.5-5,6.5s-5-3-5-6.5,1-5.5,5-5.5S458,2098,458,2101.5Z" transform="translate(-421 -2071)"/><path class="cls-1" d="M479,2101.5c0,3.5-2,6.5-5,6.5s-5-3-5-6.5,1-5.5,5-5.5S479,2098,479,2101.5Z" transform="translate(-421 -2071)"/><line class="cls-1" x1="21" y1="40" x2="21" y2="43"/><line class="cls-1" x1="43" y1="40" x2="43" y2="43"/><path class="cls-1" d="M458,2077.5c0,3.5-2,6.5-5,6.5s-5-3-5-6.5,1-5.5,5-5.5S458,2074,458,2077.5Z" transform="translate(-421 -2071)"/><path class="cls-1" d="M456,2083l7,4v2c0,1.66-1,3-2,3H445c-1,0-2-1.34-2-3v-2l7-4" transform="translate(-421 -2071)"/><line class="cls-1" x1="11" y1="20" x2="11" y2="5"/><polyline class="cls-2" points="16 10 11 5 6 10"/><line class="cls-1" x1="53" y1="20" x2="53" y2="5"/><polyline class="cls-2" points="58 10 53 5 48 10"/><path class="cls-1" d="M477,2125l7,4v2c0,1.66-1,3-2,3H424c-1,0-2-1.34-2-3v-2l7-4" transform="translate(-421 -2071)"/><polyline class="cls-1" points="35 54 43 58 43 58 50 54"/><polyline class="cls-1" points="14 54 21 58 21 58 29 54"/><path class="cls-1" d="M437,2119.5c0,3.5-2,6.5-5,6.5s-5-3-5-6.5,1-5.5,5-5.5S437,2116,437,2119.5Z" transform="translate(-421 -2071)"/><path class="cls-1" d="M458,2119.5c0,3.5-2,6.5-5,6.5s-5-3-5-6.5,1-5.5,5-5.5S458,2116,458,2119.5Z" transform="translate(-421 -2071)"/><path class="cls-1" d="M479,2119.5c0,3.5-2,6.5-5,6.5s-5-3-5-6.5,1-5.5,5-5.5S479,2116,479,2119.5Z" transform="translate(-421 -2071)"/><line class="cls-1" x1="21" y1="58" x2="21" y2="61"/><line class="cls-1" x1="43" y1="58" x2="43" y2="61"/></g></svg>