<?xml version="1.0" standalone="no"?>
<!DOCTYPE svg PUBLIC "-//W3C//DTD SVG 20010904//EN"
 "http://www.w3.org/TR/2001/REC-SVG-20010904/DTD/svg10.dtd">
<svg version="1.0" xmlns="http://www.w3.org/2000/svg"
 width="261.000000pt" height="261.000000pt" viewBox="0 0 261.000000 261.000000"
 preserveAspectRatio="xMidYMid meet">
<metadata>
Created by potrace 1.11, written by Peter Selinger 2001-2013
</metadata>
<g transform="translate(0.000000,261.000000) scale(0.100000,-0.100000)"
fill="#000000" stroke="none">
<path d="M1148 2599 c-494 -57 -923 -407 -1083 -883 -42 -125 -57 -214 -62
-371 -6 -179 10 -298 62 -454 149 -442 508 -764 970 -867 113 -25 353 -30 476
-9 409 68 758 320 947 684 104 200 145 366 146 596 1 171 -12 255 -60 405
-190 594 -774 970 -1396 899z m83 -734 c24 -9 61 -32 82 -52 l37 -37 0 47 0
47 90 0 90 0 0 -408 c0 -440 -4 -479 -55 -565 -49 -85 -135 -143 -243 -166
-196 -41 -386 39 -458 192 -39 84 -36 91 49 111 39 10 77 20 83 22 7 3 15 -8
18 -23 23 -91 101 -147 206 -146 143 0 209 72 218 238 l4 90 -33 -33 c-61 -62
-103 -77 -209 -77 -83 1 -102 4 -152 28 -73 36 -149 118 -179 195 -19 45 -23
77 -24 157 0 118 12 164 63 238 47 69 88 103 160 133 69 28 186 32 253 9z
m566 -541 c53 -33 75 -107 50 -167 -36 -85 -150 -103 -214 -33 -27 29 -33 44
-33 81 0 53 21 99 52 116 55 30 101 31 145 3z"/>
<path d="M1050 1698 c-26 -14 -57 -41 -75 -66 -28 -41 -30 -49 -30 -142 0 -93
2 -101 30 -142 82 -117 258 -117 340 0 28 41 30 49 30 142 0 93 -2 101 -30
142 -39 55 -102 88 -170 88 -33 0 -67 -8 -95 -22z"/>
</g>
</svg>
