<?xml version="1.0" standalone="no"?>
<!DOCTYPE svg PUBLIC "-//W3C//DTD SVG 20010904//EN"
 "http://www.w3.org/TR/2001/REC-SVG-20010904/DTD/svg10.dtd">
<svg version="1.0" xmlns="http://www.w3.org/2000/svg"
 width="260.000000pt" height="260.000000pt" viewBox="0 0 260.000000 260.000000"
 preserveAspectRatio="xMidYMid meet">
<metadata>
Created by potrace 1.11, written by Peter Selinger 2001-2013
</metadata>
<g transform="translate(0.000000,260.000000) scale(0.100000,-0.100000)"
fill="#000000" stroke="none">
<path d="M1075 2584 c-262 -46 -504 -173 -695 -364 -250 -250 -380 -565 -380
-920 0 -355 130 -669 380 -920 248 -249 565 -380 920 -380 355 0 672 131 920
380 250 251 380 565 380 920 0 355 -130 670 -380 920 -194 194 -433 318 -699
364 -116 20 -334 20 -446 0z m60 -625 c76 -14 140 -46 193 -98 23 -23 44 -41
47 -41 3 0 5 29 5 65 l0 65 100 0 100 0 0 -447 c-1 -491 -7 -560 -56 -662 -55
-112 -184 -206 -318 -230 -171 -31 -371 12 -493 107 l-23 17 41 65 c23 36 44
69 48 73 5 4 35 -8 67 -27 121 -71 268 -86 380 -37 110 48 154 128 161 295 l5
111 -51 -57 c-213 -235 -612 -123 -695 197 -18 67 -21 208 -5 274 37 164 181
304 337 331 69 11 92 11 157 -1z m817 -529 c48 -14 95 -61 108 -111 41 -150
-149 -259 -259 -148 -94 94 -31 257 104 268 6 1 27 -4 47 -9z"/>
<path d="M1033 1800 c-148 -35 -245 -215 -199 -372 40 -137 132 -212 261 -212
122 -1 210 58 262 174 26 57 23 184 -6 247 -56 125 -190 194 -318 163z"/>
</g>
</svg>
