<svg id="icons" xmlns="http://www.w3.org/2000/svg" viewBox="0 0 56 64"><defs><style>.cls-1{fill:none;stroke:#002e5b;stroke-miterlimit:10;stroke-width:2px;}</style></defs><title>1</title><g id="_02_features_list" data-name="02_features_list"><circle class="cls-1" cx="16" cy="16" r="15"/><path class="cls-1" d="M1169,732v20a4,4,0,0,1-8,0V732" transform="translate(-1149 -701)"/><line class="cls-1" x1="16" y1="40" x2="16" y2="42"/><line class="cls-1" x1="16" y1="44" x2="16" y2="46"/><line class="cls-1" x1="16" y1="48" x2="16" y2="50"/><polyline class="cls-1" points="32 7 55 7 55 54 46 63 16 63 16 58"/><polyline class="cls-1" points="46 63 46 54 55 54"/><polyline class="cls-1" points="23 16 23 23 9 23 9 9 20 9"/><polyline class="cls-1" points="23 11 16 18 13 15"/><rect class="cls-1" x="24" y="34" width="4" height="4"/><rect class="cls-1" x="24" y="42" width="4" height="4"/><rect class="cls-1" x="24" y="50" width="4" height="4"/><line class="cls-1" x1="50" y1="34" x2="31" y2="34"/><line class="cls-1" x1="50" y1="38" x2="31" y2="38"/><line class="cls-1" x1="50" y1="42" x2="31" y2="42"/><line class="cls-1" x1="50" y1="46" x2="31" y2="46"/><line class="cls-1" x1="41" y1="54" x2="31" y2="54"/><line class="cls-1" x1="50" y1="50" x2="31" y2="50"/><polyline class="cls-1" points="34 18 49 18 49 28 31 28"/><line class="cls-1" x1="50" y1="14" x2="48" y2="14"/><line class="cls-1" x1="46" y1="14" x2="44" y2="14"/><line class="cls-1" x1="42" y1="14" x2="40" y2="14"/></g></svg>