<svg id="icons" xmlns="http://www.w3.org/2000/svg" viewBox="0 0 64 60"><defs><style>.cls-1,.cls-2{fill:none;stroke:#dedede;stroke-width:2px;}.cls-1{stroke-linejoin:round;}.cls-2{stroke-miterlimit:10;}</style></defs><title>2</title><g id="_17_digital_graphics" data-name="17_digital_graphics"><line class="cls-1" x1="28" y1="9" x2="28" y2="50"/><line class="cls-1" x1="20" y1="50" x2="20" y2="9"/><line class="cls-1" x1="24" y1="9" x2="24" y2="50"/><polygon class="cls-1" points="24 1 20 9 28 9 24 1"/><polyline class="cls-2" points="34 50 34 1 44 1 44 50"/><line class="cls-2" x1="40" y1="4" x2="40" y2="6"/><line class="cls-2" x1="34" y1="9" x2="37" y2="9"/><line class="cls-2" x1="34" y1="13" x2="37" y2="13"/><line class="cls-2" x1="34" y1="17" x2="37" y2="17"/><line class="cls-2" x1="34" y1="21" x2="37" y2="21"/><line class="cls-2" x1="34" y1="25" x2="37" y2="25"/><line class="cls-2" x1="34" y1="29" x2="37" y2="29"/><line class="cls-2" x1="34" y1="33" x2="37" y2="33"/><line class="cls-2" x1="34" y1="37" x2="37" y2="37"/><line class="cls-2" x1="34" y1="41" x2="37" y2="41"/><line class="cls-2" x1="34" y1="45" x2="37" y2="45"/><line class="cls-2" x1="34" y1="49" x2="37" y2="49"/><polygon class="cls-2" points="59 59 5 59 1 55 1 53 25 53 27 55 37 55 39 53 63 53 63 55 59 59"/><path class="cls-2" d="M120,5561h-9a3,3,0,0,0-3,3v32" transform="translate(-103 -5546)"/><path class="cls-2" d="M162,5596v-32a3,3,0,0,0-3-3h-9" transform="translate(-103 -5546)"/><polyline class="cls-2" points="47 19 55 19 55 49 47 49"/><polyline class="cls-2" points="17 49 9 49 9 19 17 19"/></g></svg>