<svg id="icons" xmlns="http://www.w3.org/2000/svg" viewBox="0 0 64 58"><defs><style>.cls-1{fill:none;stroke:#dedede;stroke-miterlimit:10;stroke-width:2px;}</style></defs><title>3</title><g id="_19_computer_api_interface" data-name="19_computer_api_interface"><path class="cls-1" d="M334,6527v-12a3,3,0,0,1,3-3h1a3,3,0,0,1,3,3v12" transform="translate(-315 -6497)"/><line class="cls-1" x1="19" y1="24" x2="26" y2="24"/><path class="cls-1" d="M345,6527v-15h4a3,3,0,0,1,3,3v3a3,3,0,0,1-3,3h-4" transform="translate(-315 -6497)"/><line class="cls-1" x1="43" y1="15" x2="43" y2="29"/><line class="cls-1" x1="40" y1="15" x2="46" y2="15"/><line class="cls-1" x1="40" y1="29" x2="46" y2="29"/><rect class="cls-1" x="1" y="1" width="62" height="46" rx="3" ry="3"/><line class="cls-1" x1="38" y1="47" x2="40" y2="57"/><line class="cls-1" x1="24" y1="57" x2="26" y2="47"/><line class="cls-1" x1="19" y1="57" x2="45" y2="57"/><line class="cls-1" x1="31" y1="43" x2="33" y2="43"/><line class="cls-1" x1="60" y1="22" x2="49" y2="22"/><polyline class="cls-1" points="60 14 56 14 52 18 49 18"/><polyline class="cls-1" points="49 26 52 26 56 30 60 30"/><line class="cls-1" x1="4" y1="22" x2="15" y2="22"/><polyline class="cls-1" points="4 14 8 14 12 18 15 18"/><polyline class="cls-1" points="15 26 12 26 8 30 4 30"/><polyline class="cls-1" points="5 11 5 5 59 5 59 11"/><polyline class="cls-1" points="59 33 59 39 5 39 5 33"/><line class="cls-1" x1="4" y1="18" x2="6" y2="18"/><line class="cls-1" x1="4" y1="26" x2="6" y2="26"/><line class="cls-1" x1="58" y1="18" x2="60" y2="18"/><line class="cls-1" x1="58" y1="26" x2="60" y2="26"/><rect class="cls-1" x="15" y="11" width="34" height="22" rx="1" ry="1"/></g></svg>