<svg id="icons" xmlns="http://www.w3.org/2000/svg" viewBox="0 0 64 64"><defs><style>.cls-1{fill:none;stroke:#dedede;stroke-linejoin:round;stroke-width:2px;}</style></defs><title>4</title><g id="_02_startup_launch" data-name="02_startup_launch"><path class="cls-1" d="M848,650l-12-12s25-41,53-41C889,625,848,650,848,650Z" transform="translate(-826 -596)"/><polyline class="cls-1" points="20 52 17 55 9 47 12 44"/><path class="cls-1" d="M833,646a20,20,0,0,0-6,13,20,20,0,0,0,13-6" transform="translate(-826 -596)"/><circle class="cls-1" cx="46" cy="18" r="4"/><circle class="cls-1" cx="37" cy="27" r="4"/><circle class="cls-1" cx="28" cy="36" r="4"/><polyline class="cls-1" points="54 25 37 63 27 63 27 55"/><polyline class="cls-1" points="39 10 1 27 1 37 9 37"/><path class="cls-1" d="M887,607a8,8,0,0,1-8-8" transform="translate(-826 -596)"/></g></svg>